<?xml version="1.0" encoding="utf-8"?>
<!-- Generator: Adobe Illustrator 22.0.1, SVG Export Plug-In . SVG Version: 6.00 Build 0)  -->
<svg version="1.1" id="Camada_1" xmlns="http://www.w3.org/2000/svg" xmlns:xlink="http://www.w3.org/1999/xlink" x="0px" y="0px"
	 viewBox="0 0 500 229.3" style="enable-background:new 0 0 500 229.3;" xml:space="preserve">
<style type="text/css">
	.st0{fill:#E4A147;}
	.st1{fill:#FFFFFF;}
	.st2{fill:#F7931E;}
	.st3{fill:none;stroke:#E4A147;stroke-width:3;stroke-miterlimit:10;}
	.st4{fill:#4D4D4D;}
	.st5{fill:#1A1A1A;}
	.st6{font-family:'OldEnglishTextMT';}
	.st7{font-size:86.1624px;}
</style>
<path class="st0" d="M324,67.9l-1.7,35.4l-0.6,11.7l-5,102.5c0,4.3-2,7.7-4.4,7.7h-88c-2.4,0-4.4-3.5-4.4-7.7l-7.3-149.7H324z"/>
<g>
	<path class="st1" d="M221.5,101.5c2.4,0.1,5.1,0.1,7.7,0.9c1.3,0.4,2.7,0.9,3.9,1.8c1.2,0.8,2.3,2,3.1,3.3c0.8,1.3,1.2,2.8,1.4,4
		c0.3,1.3,0.4,2.5,0.6,3.7c0.3,2.4,0.5,4.9,0.7,7.3c0.7,9.7,1,19.3,1.1,28.9l0.5,57.7l0,0l-2.5-57.7c-0.6-9.6-1.4-19.2-2.5-28.7
		c-0.3-2.4-0.6-4.7-1-7.1c-0.2-1.2-0.4-2.3-0.7-3.4c-0.3-1.1-0.6-2-1.1-2.7c-1-1.5-2.6-2.4-4.6-2.8c-2-0.4-4.2-0.4-6.6-0.3
		L221.5,101.5z"/>
</g>
<g>
	<path class="st2" d="M327.9,31.1c1.6,0.1,3.5,0,5.5,0.1c1,0.1,2,0.2,3,0.6c1,0.3,2,0.9,2.8,1.8c0.8,0.8,1.3,1.9,1.6,2.8
		c0.3,1,0.4,1.9,0.5,2.9c0.2,1.9,0.4,3.7,0.5,5.5c0.4,7.3,0.5,14.6,0.5,21.9c0,7.3-0.2,14.6-0.3,21.9l-0.4,21.9l-2.3,0l0.5-21.9
		c0.1-7.3,0.3-14.6,0.3-21.8c0-7.3-0.1-14.6-0.5-21.8c-0.1-1.8-0.3-3.6-0.5-5.4c-0.1-0.9-0.3-1.8-0.5-2.5c-0.2-0.7-0.6-1.4-1.1-1.9
		c-0.9-1-2.5-1.4-4.2-1.4c-1.7-0.1-3.4,0.2-5.5,0.3L327.9,31.1z"/>
</g>
<g>
	<path class="st2" d="M339.7,116c-2.7-0.2-4.3-0.3-5.8,0.7c-1.3,0.8-1.6,7.8-1.6,7.8l-0.6,7.8l12.9,0.7c0,0,0.7-6,0.9-7.9
		c0.2-1.9,0.8-6.4-0.7-7.8C343.5,116,339.7,116,339.7,116z"/>
</g>
<path class="st1" d="M282.3,128.8c0,4-0.1,8-0.2,12c-0.1,2-0.1,4-0.2,6l-0.1,1.5c0,0.5,0,1,0,1.5l-0.1,3l-0.4,12l-0.7,43.1l0-19.2
	l-0.7-23.9l-0.4-12l-0.1-3c0-0.5,0-1,0-1.5l0-1.5c0-2-0.1-4-0.2-6c-0.1-4-0.3-8-0.5-11.9c-0.2-4-0.5-7.9-0.8-11.8
	c-0.2-2-0.4-3.9-0.8-5.7c-0.1-0.4-0.2-0.9-0.3-1.3l-0.1-0.3c0-0.1-0.1-0.2-0.1-0.3c-0.1-0.2-0.1-0.3-0.2-0.5
	c-0.2-0.3-0.3-0.6-0.5-0.9c-0.2-0.3-0.4-0.5-0.7-0.7c-1-0.8-2.4-1.3-4.1-1.5c-0.8-0.1-1.7-0.2-2.6-0.2c-0.9,0-1.4,0-2.4,0
	c-1.1,0-1.5,0-2.4,0c-0.9,0-1.8,0.1-2.6,0.2c-1.7,0.2-3.1,0.7-4.1,1.5c-0.2,0.2-0.5,0.5-0.7,0.7c-0.2,0.3-0.4,0.6-0.5,0.9
	c-0.1,0.2-0.1,0.3-0.2,0.5c0,0.1-0.1,0.2-0.1,0.3l-0.1,0.3c-0.1,0.4-0.2,0.9-0.3,1.3c-0.3,1.8-0.6,3.8-0.8,5.7
	c-0.4,3.9-0.6,7.9-0.8,11.8c-0.2,4-0.4,8-0.5,11.9c-0.1,2-0.1,4-0.2,6l0,1.5c0,0.5,0,1,0,1.5l-0.1,3l-0.4,12l-0.7,43.1l0-19.2
	l-0.7-23.9l-0.4-12l-0.1-3c0-0.5,0-1-0.1-1.5l0-1.5c-0.1-2-0.1-4-0.2-6c-0.1-4-0.2-8-0.2-12c0-4,0-8,0.1-12.1c0.1-2,0.2-4,0.5-6.2
	c0.1-0.5,0.2-1.1,0.3-1.6l0.1-0.4c0-0.2,0.1-0.3,0.1-0.5c0.1-0.3,0.2-0.6,0.3-0.9c0.2-0.6,0.5-1.2,0.9-1.8c0.4-0.6,0.8-1.1,1.2-1.6
	c0.5-0.5,1-0.9,1.5-1.3c0.6-0.4,1.1-0.7,1.7-1c1.1-0.5,2.3-0.9,3.4-1.1c1.1-0.2,2.2-0.4,3.3-0.5c1.1-0.1,1.7-0.2,2.8-0.2
	c1,0,1.7,0.1,2.8,0.2c1.1,0.1,2.2,0.2,3.3,0.5c1.1,0.2,2.3,0.6,3.4,1.1c0.6,0.3,1.1,0.6,1.7,1c0.6,0.4,1.1,0.8,1.5,1.3
	c0.5,0.5,0.9,1,1.3,1.6c0.3,0.6,0.6,1.2,0.9,1.8c0.1,0.3,0.2,0.6,0.3,0.9c0,0.2,0.1,0.3,0.1,0.5l0.1,0.4c0.1,0.6,0.2,1.1,0.3,1.6
	c0.3,2.1,0.4,4.1,0.5,6.2C282.3,120.8,282.4,124.8,282.3,128.8z"/>
<line class="st3" x1="8.5" y1="117.2" x2="228.3" y2="117.2"/>
<path class="st1" d="M322.2,103.3l-0.6,11.7c-0.1-1.3-0.3-2.5-0.5-3.7c-0.1-0.5-0.2-0.9-0.3-1.3l-0.1-0.3c0-0.1-0.1-0.2-0.1-0.3
	c-0.1-0.2-0.1-0.3-0.2-0.5c-0.1-0.3-0.3-0.6-0.5-0.9c-0.2-0.3-0.4-0.5-0.7-0.7c-1-0.8-2.4-1.3-4.1-1.5c-0.8-0.1-1.7-0.2-2.6-0.2
	c-0.9,0-1.4,0-2.4-0.1c-1.1,0-1.5,0-2.4,0.1c-0.9,0-1.8,0.1-2.7,0.2c-1.7,0.2-3.1,0.7-4.1,1.5c-0.3,0.2-0.5,0.5-0.7,0.7
	c-0.2,0.3-0.4,0.5-0.5,0.9c-0.1,0.2-0.1,0.3-0.2,0.5c0,0.1-0.1,0.2-0.1,0.3l-0.1,0.3c-0.1,0.4-0.2,0.8-0.3,1.3
	c-0.3,1.8-0.6,3.8-0.8,5.7c-0.4,3.9-0.6,7.9-0.8,11.8c-0.2,4-0.4,8-0.5,11.9c-0.1,2-0.1,4-0.2,6l0,1.5c0,0.5,0,1,0,1.5l-0.1,3
	l-0.3,12l-0.7,23.9l0,19.2l-0.7-43.1l-0.3-12l-0.1-3c0-0.5,0-1,0-1.5l-0.1-1.5c-0.1-2-0.1-4-0.2-6c-0.1-4-0.2-8-0.2-12
	c0-4,0-8,0.1-12.1c0.1-2,0.2-4,0.5-6.2c0.1-0.5,0.2-1.1,0.3-1.7l0.1-0.4c0-0.2,0.1-0.3,0.1-0.5c0.1-0.3,0.2-0.6,0.3-0.9
	c0.2-0.6,0.5-1.2,0.9-1.8c0.4-0.6,0.8-1.1,1.3-1.6c0.5-0.5,1-0.9,1.5-1.3c0.5-0.4,1.1-0.7,1.7-1c1.1-0.5,2.3-0.9,3.4-1.1
	c1.1-0.2,2.2-0.4,3.3-0.5s1.7-0.2,2.8-0.2c1,0,1.7,0.1,2.8,0.2s2.2,0.2,3.3,0.5s2.3,0.6,3.4,1.1c0.6,0.3,1.1,0.6,1.7,1
	C321.6,102.7,321.9,103,322.2,103.3z"/>
<ellipse transform="matrix(0.7658 -0.6431 0.6431 0.7658 4.1724 157.4747)" class="st1" cx="218.3" cy="73" rx="18.5" ry="11.3"/>
<ellipse transform="matrix(3.566995e-02 -0.9994 0.9994 3.566995e-02 166.5455 303.7005)" class="st1" cx="240.6" cy="65.6" rx="11.3" ry="18.5"/>
<ellipse transform="matrix(3.566995e-02 -0.9994 0.9994 3.566995e-02 159.1784 291.9514)" class="st1" cx="230.9" cy="63.5" rx="11.3" ry="18.5"/>
<ellipse transform="matrix(3.566995e-02 -0.9994 0.9994 3.566995e-02 180.4187 332.992)" class="st1" cx="262.8" cy="73" rx="11.3" ry="18.5"/>
<ellipse transform="matrix(3.566995e-02 -0.9994 0.9994 3.566995e-02 208.5477 355.9714)" class="st1" cx="288.7" cy="69.9" rx="11.3" ry="18.5"/>
<ellipse transform="matrix(3.566995e-02 -0.9994 0.9994 3.566995e-02 230.0492 382.3684)" class="st1" cx="313.2" cy="72" rx="11.3" ry="18.5"/>
<ellipse transform="matrix(3.566995e-02 -0.9994 0.9994 3.566995e-02 179.2685 298.3712)" class="st1" cx="244.2" cy="56.3" rx="11.3" ry="18.5"/>
<ellipse transform="matrix(3.566995e-02 -0.9994 0.9994 3.566995e-02 196.374 315.9075)" class="st1" cx="261.9" cy="56.2" rx="11.3" ry="8.6"/>
<ellipse transform="matrix(0.79 -0.6132 0.6132 0.79 22.406 180.3776)" class="st1" cx="274.5" cy="57.5" rx="11.3" ry="8.6"/>
<ellipse transform="matrix(0.79 -0.6132 0.6132 0.79 28.5511 190.3242)" class="st1" cx="292.1" cy="53.5" rx="18.1" ry="15.7"/>
<ellipse transform="matrix(0.79 -0.6132 0.6132 0.79 21.8278 199.4982)" class="st1" cx="302.1" cy="67.9" rx="18.1" ry="15.7"/>
<ellipse transform="matrix(0.9808 -0.1949 0.1949 0.9808 -7.7297 45.6514)" class="st1" cx="228.2" cy="62.1" rx="15.8" ry="11.3"/>
<ellipse transform="matrix(0.7658 -0.6431 0.6431 0.7658 -8.2288 159.1183)" class="st1" cx="214.3" cy="90.9" rx="12.4" ry="11.3"/>
<ellipse transform="matrix(0.7658 -0.6431 0.6431 0.7658 -14.3401 158.7753)" class="st1" cx="210.8" cy="99.1" rx="10.8" ry="11.3"/>
<ellipse transform="matrix(0.7658 -0.6431 0.6431 0.7658 -31.5793 166.3931)" class="st1" cx="212.6" cy="126.5" rx="7.2" ry="11.3"/>
<ellipse transform="matrix(8.721282e-02 -0.9962 0.9962 8.721282e-02 75.0032 330.8837)" class="st1" cx="218.1" cy="124.5" rx="35.1" ry="8.2"/>
<ellipse transform="matrix(0.5646 -0.8254 0.8254 0.5646 33.4464 228.3652)" class="st1" cx="233.2" cy="82.5" rx="19" ry="10.8"/>
<ellipse transform="matrix(8.721282e-02 -0.9962 0.9962 8.721282e-02 81.1746 313.403)" class="st1" cx="211.6" cy="112.4" rx="16.9" ry="10.8"/>
<ellipse transform="matrix(0.9364 -0.3509 0.3509 0.9364 -35.8956 83.4227)" class="st1" cx="212.2" cy="140.7" rx="8.4" ry="16.9"/>
<ellipse transform="matrix(0.1456 -0.9893 0.9893 0.1456 33.988 350.139)" class="st1" cx="219.7" cy="155.4" rx="16.9" ry="7.5"/>
<ellipse transform="matrix(0.9777 -0.21 0.21 0.9777 -29.9673 48.9784)" class="st1" cx="215.6" cy="165.6" rx="4.1" ry="16.9"/>
<polygon class="st4" points="246.1,21.4 217.9,4.3 305.3,16.4 364.8,49.7 333.8,43.5 "/>
<path class="st5" d="M239.8,46.8l89.4,22.6l7.6-30.2c0,0-32.4-12.8-43.6-15.6s-45.8-6.9-45.8-6.9L239.8,46.8z"/>
<g>
	<circle class="st2" cx="340.2" cy="112.4" r="4.3"/>
</g>
<line class="st3" x1="315.7" y1="211.3" x2="493" y2="211.3"/>
<text transform="matrix(0.8371 0 0 1 14.5732 110.9193)" class="st2 st6 st7">Facul</text>
<text transform="matrix(0.8371 0 0 1 333.1807 204.7962)" class="st2 st6 st7">Beer</text>
</svg>
