<?xml version="1.0" encoding="utf-8"?>
<!-- Generator: Adobe Illustrator 22.0.1, SVG Export Plug-In . SVG Version: 6.00 Build 0)  -->
<svg version="1.1" xmlns="http://www.w3.org/2000/svg" xmlns:xlink="http://www.w3.org/1999/xlink" x="0px" y="0px"
	 viewBox="0 0 500 434" style="enable-background:new 0 0 500 434;" xml:space="preserve">
<style type="text/css">
	.st0{display:none;}
	.st1{display:inline;fill:#E4A147;}
	.st2{display:inline;}
	.st3{fill:#FFFFFF;}
	.st4{fill:#F7931E;}
	.st5{display:inline;fill:#FFFFFF;}
	.st6{display:inline;fill:none;stroke:#E4A147;stroke-width:3;stroke-miterlimit:10;}
	.st7{display:inline;fill:#4D4D4D;}
	.st8{display:inline;fill:#1A1A1A;}
	.st9{display:inline;fill:#F7931E;}
	.st10{font-family:'OldEnglishTextMT';}
	.st11{font-size:85.0954px;}
	.st12{display:inline;fill:none;stroke:#E4A147;stroke-width:24;stroke-miterlimit:10;}
	.st13{display:inline;opacity:0.87;}
</style>
<g id="Camada_1" class="st0">
	<path class="st1" d="M264.1,287.5h-43.4c-2.4,0-4.3-3.4-4.3-7.6l-7.2-147.8h55V287.5z"/>
	<g class="st2">
		<path class="st3" d="M217.8,165.3c2.4,0.1,5,0.1,7.6,0.9c1.3,0.4,2.7,0.9,3.9,1.7c1.2,0.8,2.3,2,3.1,3.3c0.8,1.3,1.1,2.7,1.4,4
			c0.2,1.2,0.4,2.5,0.6,3.7c0.3,2.4,0.5,4.8,0.7,7.2c0.7,9.5,1,19,1.1,28.6l0.5,57l0,0l-2.5-56.9c-0.6-9.5-1.4-18.9-2.5-28.3
			c-0.3-2.3-0.6-4.7-1-7c-0.2-1.1-0.4-2.3-0.7-3.4c-0.3-1.1-0.6-1.9-1.1-2.7c-1-1.5-2.6-2.3-4.6-2.7c-2-0.4-4.2-0.4-6.5-0.3
			L217.8,165.3z"/>
	</g>
	<g class="st2">
		<path class="st4" d="M323,95.7c1.6,0.1,3.5,0,5.4,0.1c1,0.1,2,0.2,3,0.6c1,0.3,2,0.9,2.8,1.8c0.8,0.8,1.3,1.8,1.6,2.8
			c0.3,1,0.4,1.9,0.5,2.8c0.2,1.8,0.4,3.6,0.5,5.5c0.4,7.2,0.5,14.4,0.5,21.7c0,7.2-0.2,14.4-0.3,21.6l-0.4,21.6l-2.3,0l0.5-21.6
			c0.1-7.2,0.3-14.4,0.3-21.6c0-7.2-0.1-14.4-0.5-21.5c-0.1-1.8-0.2-3.6-0.5-5.3c-0.1-0.9-0.2-1.7-0.5-2.5c-0.2-0.7-0.6-1.4-1.1-1.8
			c-0.9-1-2.5-1.4-4.1-1.4c-1.7-0.1-3.4,0.2-5.4,0.3L323,95.7z"/>
	</g>
	<g class="st2">
		<path class="st4" d="M334.6,179.7c-2.7-0.2-4.3-0.3-5.7,0.7c-1.3,0.8-1.5,7.7-1.5,7.7l-0.6,7.7l12.8,0.6c0,0,0.7-5.9,0.9-7.8
			c0.2-1.9,0.8-6.3-0.7-7.7C338.4,179.7,334.6,179.7,334.6,179.7z"/>
	</g>
	<path class="st5" d="M261.9,169.4c-1.1,0-1.5,0-2.4,0c-0.9,0-1.8,0.1-2.6,0.2c-1.7,0.2-3.1,0.7-4,1.5c-0.2,0.2-0.5,0.4-0.7,0.7
		c-0.2,0.3-0.4,0.5-0.5,0.9c-0.1,0.2-0.1,0.3-0.2,0.5c0,0.1-0.1,0.2-0.1,0.2l-0.1,0.3c-0.1,0.4-0.2,0.8-0.3,1.3
		c-0.3,1.8-0.6,3.7-0.8,5.7c-0.4,3.9-0.6,7.8-0.8,11.7c-0.2,3.9-0.4,7.9-0.5,11.8c-0.1,2-0.1,3.9-0.2,5.9l0,1.5c0,0.5,0,1,0,1.5
		l-0.1,3l-0.4,11.8l-0.7,42.6l0-18.9l-0.7-23.6l-0.4-11.8l-0.1-3c0-0.5,0-1,0-1.5l-0.1-1.5c-0.1-2-0.1-3.9-0.2-5.9
		c-0.1-3.9-0.2-7.9-0.2-11.9c0-4,0-7.9,0.1-11.9c0.1-2,0.2-4,0.5-6.1c0.1-0.5,0.2-1.1,0.3-1.6l0.1-0.4c0-0.2,0.1-0.3,0.1-0.5
		c0.1-0.3,0.2-0.6,0.3-0.9c0.2-0.6,0.5-1.2,0.9-1.7c0.4-0.6,0.8-1.1,1.2-1.6c0.5-0.5,1-0.9,1.5-1.3c0.5-0.4,1.1-0.7,1.7-0.9
		c1.1-0.5,2.3-0.9,3.4-1.1c1.1-0.2,2.2-0.4,3.3-0.5c1-0.1,1.7-0.2,2.7-0.2V169.4z"/>
	<path class="st1" d="M319,132.1l-1.7,35l-0.6,11.6l-4.9,101.3c0,4.2-1.9,7.6-4.3,7.6h-43.4V132.1H319z"/>
	<line class="st6" x1="7.5" y1="180.8" x2="224.6" y2="180.8"/>
	<path class="st5" d="M261.9,169.4c1.1,0,1.5,0,2.4,0c0.9,0,1.8,0.1,2.6,0.2c1.7,0.2,3.1,0.7,4,1.5c0.2,0.2,0.5,0.4,0.7,0.7
		c0.2,0.3,0.4,0.5,0.5,0.9c0.1,0.2,0.1,0.3,0.2,0.5c0,0.1,0.1,0.2,0.1,0.2l0.1,0.3c0.1,0.4,0.2,0.8,0.3,1.3c0.3,1.8,0.6,3.7,0.8,5.7
		c0.4,3.9,0.6,7.8,0.8,11.7c0.2,3.9,0.4,7.9,0.5,11.8c0.1,2,0.1,3.9,0.2,5.9l0,1.5c0,0.5,0,1,0,1.5l0.1,3l0.4,11.8l0.7,23.6l0,18.9
		l0.7-42.6l0.4-11.8l0.1-3c0-0.5,0-1,0-1.5l0.1-1.5c0.1-2,0.1-3.9,0.2-5.9c0.1-3.9,0.2-7.9,0.2-11.9c0-4,0-7.9-0.1-11.9
		c-0.1-2-0.2-4-0.5-6.1c-0.1-0.5-0.2-1.1-0.3-1.6l-0.1-0.4c0-0.2-0.1-0.3-0.1-0.5c-0.1-0.3-0.2-0.6-0.3-0.9
		c-0.2-0.6-0.5-1.2-0.9-1.7c-0.4-0.6-0.8-1.1-1.2-1.6c-0.5-0.5-1-0.9-1.5-1.3c-0.5-0.4-1.1-0.7-1.7-0.9c-1.1-0.5-2.3-0.9-3.4-1.1
		c-1.1-0.2-2.2-0.4-3.3-0.5c-1-0.1-1.7-0.2-2.7-0.2V169.4z"/>
	<path class="st5" d="M305.3,169.4c-1.1,0-1.5,0-2.4,0c-0.9,0-1.8,0.1-2.6,0.2c-1.7,0.2-3.1,0.7-4,1.5c-0.2,0.2-0.5,0.4-0.7,0.7
		c-0.2,0.3-0.4,0.5-0.5,0.9c-0.1,0.2-0.1,0.3-0.2,0.5c0,0.1-0.1,0.2-0.1,0.2l-0.1,0.3c-0.1,0.4-0.2,0.8-0.3,1.3
		c-0.3,1.8-0.6,3.7-0.8,5.7c-0.4,3.9-0.6,7.8-0.8,11.7c-0.2,3.9-0.4,7.9-0.5,11.8c-0.1,2-0.1,3.9-0.2,5.9l0,1.5c0,0.5,0,1,0,1.5
		l-0.1,3l-0.4,11.8l-0.7,23.6l0,18.9l-0.7-42.6l-0.4-11.8l-0.1-3c0-0.5,0-1,0-1.5l-0.1-1.5c-0.1-2-0.1-3.9-0.2-5.9
		c-0.1-3.9-0.2-7.9-0.2-11.9c0-4,0-7.9,0.1-11.9c0.1-2,0.2-4,0.5-6.1c0.1-0.5,0.2-1.1,0.3-1.6l0.1-0.4c0-0.2,0.1-0.3,0.1-0.5
		c0.1-0.3,0.2-0.6,0.3-0.9c0.2-0.6,0.5-1.2,0.9-1.7c0.4-0.6,0.8-1.1,1.2-1.6c0.5-0.5,1-0.9,1.5-1.3c0.5-0.4,1.1-0.7,1.7-0.9
		c1.1-0.5,2.3-0.9,3.4-1.1c1.1-0.2,2.2-0.4,3.3-0.5c1-0.1,1.7-0.2,2.7-0.2V169.4z"/>
	<path class="st5" d="M317.3,167l-0.6,11.6c-0.1-1.2-0.3-2.5-0.5-3.6c-0.1-0.4-0.2-0.9-0.3-1.3l-0.1-0.3c0-0.1-0.1-0.2-0.1-0.2
		c-0.1-0.2-0.1-0.3-0.2-0.5c-0.1-0.3-0.3-0.6-0.5-0.9c-0.2-0.3-0.4-0.5-0.7-0.7c-1-0.8-2.4-1.3-4-1.5c-0.8-0.1-1.7-0.1-2.6-0.2
		c-0.9,0-1.3,0-2.4-0.1v-5.8c1,0,1.7,0.1,2.7,0.2c1.1,0.1,2.1,0.2,3.3,0.5c1.1,0.2,2.3,0.6,3.4,1.1c0.6,0.3,1.1,0.6,1.7,0.9
		C316.7,166.5,317,166.8,317.3,167z"/>
	
		<ellipse transform="matrix(0.7658 -0.6431 0.6431 0.7658 -37.9285 170.1879)" class="st5" cx="214.7" cy="137.2" rx="18.3" ry="11.1"/>
	
		<ellipse transform="matrix(3.566995e-02 -0.9994 0.9994 3.566995e-02 98.6045 361.7818)" class="st5" cx="236.8" cy="129.8" rx="11.1" ry="18.3"/>
	
		<ellipse transform="matrix(3.566995e-02 -0.9994 0.9994 3.566995e-02 91.3287 350.1783)" class="st5" cx="227.1" cy="127.8" rx="11.1" ry="18.3"/>
	
		<ellipse transform="matrix(3.566995e-02 -0.9994 0.9994 3.566995e-02 112.3059 390.7106)" class="st5" cx="258.6" cy="137.2" rx="11.1" ry="18.3"/>
	
		<ellipse transform="matrix(3.566995e-02 -0.9994 0.9994 3.566995e-02 140.0865 413.4055)" class="st5" cx="284.3" cy="134.1" rx="11.1" ry="18.3"/>
	
		<ellipse transform="matrix(3.566995e-02 -0.9994 0.9994 3.566995e-02 161.3217 439.4755)" class="st5" cx="308.4" cy="136.1" rx="11.1" ry="18.3"/>
	
		<ellipse transform="matrix(3.566995e-02 -0.9994 0.9994 3.566995e-02 111.1699 356.5186)" class="st5" cx="240.3" cy="120.7" rx="11.1" ry="18.3"/>
	
		<ellipse transform="matrix(3.566995e-02 -0.9994 0.9994 3.566995e-02 128.0636 373.8377)" class="st5" cx="257.7" cy="120.6" rx="11.1" ry="8.5"/>
	<ellipse transform="matrix(0.79 -0.6132 0.6132 0.79 -17.9506 191.2604)" class="st5" cx="270.2" cy="121.8" rx="11.1" ry="8.5"/>
	<ellipse transform="matrix(0.79 -0.6132 0.6132 0.79 -11.8816 201.0839)" class="st5" cx="287.6" cy="117.9" rx="17.9" ry="15.5"/>
	<ellipse transform="matrix(0.79 -0.6132 0.6132 0.79 -18.5216 210.1443)" class="st5" cx="297.5" cy="132.1" rx="17.9" ry="15.5"/>
	
		<ellipse transform="matrix(0.9808 -0.1949 0.1949 0.9808 -20.3282 46.1588)" class="st5" cx="224.4" cy="126.4" rx="15.6" ry="11.1"/>
	
		<ellipse transform="matrix(0.7658 -0.6431 0.6431 0.7658 -50.1762 171.8111)" class="st5" cx="210.8" cy="154.8" rx="12.2" ry="11.1"/>
	
		<ellipse transform="matrix(0.7658 -0.6431 0.6431 0.7658 -56.2118 171.4724)" class="st5" cx="207.3" cy="162.9" rx="10.6" ry="11.1"/>
	
		<ellipse transform="matrix(0.7658 -0.6431 0.6431 0.7658 -73.2375 178.9958)" class="st5" cx="209.1" cy="190" rx="7.1" ry="11.2"/>
	
		<ellipse transform="matrix(8.721282e-02 -0.9962 0.9962 8.721282e-02 8.4485 385.278)" class="st5" cx="214.5" cy="188" rx="34.7" ry="8.1"/>
	
		<ellipse transform="matrix(0.5646 -0.8254 0.8254 0.5646 -21.0533 253.1246)" class="st5" cx="229.4" cy="146.5" rx="18.8" ry="10.6"/>
	
		<ellipse transform="matrix(8.721282e-02 -0.9962 0.9962 8.721282e-02 14.5434 368.0139)" class="st5" cx="208.1" cy="176.1" rx="16.7" ry="10.6"/>
	
		<ellipse transform="matrix(0.9364 -0.3509 0.3509 0.9364 -58.3375 86.2129)" class="st5" cx="208.7" cy="204.1" rx="8.3" ry="16.7"/>
	
		<ellipse transform="matrix(0.1456 -0.9893 0.9893 0.1456 -31.5611 400.502)" class="st5" cx="216.1" cy="218.5" rx="16.7" ry="7.4"/>
	<ellipse transform="matrix(0.9777 -0.21 0.21 0.9777 -43.2812 49.6352)" class="st5" cx="212" cy="228.6" rx="4" ry="16.7"/>
	<polygon class="st7" points="242.1,86.2 214.3,69.3 300.6,81.2 359.4,114.1 328.8,108.1 	"/>
	<path class="st8" d="M235.9,111.3l88.3,22.3l7.5-29.8c0,0-32-12.6-43.1-15.4c-11.1-2.8-45.2-6.8-45.2-6.8L235.9,111.3z"/>
	<g class="st2">
		<circle class="st4" cx="335.1" cy="176" r="4.3"/>
	</g>
	<line class="st6" x1="310.9" y1="273.7" x2="486" y2="273.7"/>
	<text transform="matrix(0.8371 0 0 1 13.4985 174.6025)" class="st9 st10 st11">Facul</text>
	<text transform="matrix(0.8371 0 0 1 328.1611 267.3174)" class="st9 st10 st11">Beer</text>
</g>
<g id="Camada_2" class="st0">
	<path class="st12" d="M24,120.9c0,0,22.9,272.4,97.3,289.6C196,427.9,487-44,487-44"/>
</g>
<g id="Camada_3" class="st0">
	<g class="st13">
		<path d="M1,1.3h498v288.1c-4.8-0.2-26-1.1-62.7-1.1c-84.8,0-229,4.3-435.3,24.7V1.3z"/>
		<path d="M498,2.3v286.1c-6.4-0.3-27.2-1-61.7-1c-84.6,0-228.6,4.3-434.3,24.6V2.3H498 M500,0.3H0v313.9
			c212.6-21.1,359.1-24.8,436.3-24.8c42.3,0,63.7,1.1,63.7,1.1V0.3L500,0.3z"/>
	</g>
</g>
<g id="Camada_4">
	<polygon points="500,434 161.8,434 0.7,0 338.9,0 	"/>
</g>
</svg>
