<?xml version="1.0" encoding="utf-8"?>
<!-- Generator: Adobe Illustrator 22.0.1, SVG Export Plug-In . SVG Version: 6.00 Build 0)  -->
<svg version="1.1" xmlns="http://www.w3.org/2000/svg" xmlns:xlink="http://www.w3.org/1999/xlink" x="0px" y="0px"
	 viewBox="0 0 500 313.5" style="enable-background:new 0 0 500 313.5;" xml:space="preserve">
<style type="text/css">
	.st0{display:none;}
	.st1{display:inline;fill:#E4A147;}
	.st2{display:inline;}
	.st3{fill:#FFFFFF;}
	.st4{fill:#F7931E;}
	.st5{display:inline;fill:#FFFFFF;}
	.st6{display:inline;fill:none;stroke:#E4A147;stroke-width:3;stroke-miterlimit:10;}
	.st7{display:inline;fill:#4D4D4D;}
	.st8{display:inline;fill:#1A1A1A;}
	.st9{display:inline;fill:#F7931E;}
	.st10{font-family:'OldEnglishTextMT';}
	.st11{font-size:85.0954px;}
	.st12{display:inline;fill:none;stroke:#E4A147;stroke-width:24;stroke-miterlimit:10;}
</style>
<g id="Camada_1" class="st0">
	<path class="st1" d="M264.1,286.6h-43.4c-2.4,0-4.3-3.4-4.3-7.6l-7.2-147.8h55V286.6z"/>
	<g class="st2">
		<path class="st3" d="M217.8,164.4c2.4,0.1,5,0.1,7.6,0.9c1.3,0.4,2.7,0.9,3.9,1.7c1.2,0.8,2.3,2,3.1,3.3c0.8,1.3,1.1,2.7,1.4,4
			c0.2,1.2,0.4,2.5,0.6,3.7c0.3,2.4,0.5,4.8,0.7,7.2c0.7,9.5,1,19,1.1,28.6l0.5,57l0,0l-2.5-56.9c-0.6-9.5-1.4-18.9-2.5-28.3
			c-0.3-2.3-0.6-4.7-1-7c-0.2-1.1-0.4-2.3-0.7-3.4c-0.3-1.1-0.6-1.9-1.1-2.7c-1-1.5-2.6-2.3-4.6-2.7c-2-0.4-4.2-0.4-6.5-0.3
			L217.8,164.4z"/>
	</g>
	<g class="st2">
		<path class="st4" d="M323,94.8c1.6,0.1,3.5,0,5.4,0.1c1,0.1,2,0.2,3,0.6c1,0.3,2,0.9,2.8,1.8c0.8,0.8,1.3,1.8,1.6,2.8
			c0.3,1,0.4,1.9,0.5,2.8c0.2,1.8,0.4,3.6,0.5,5.5c0.4,7.2,0.5,14.4,0.5,21.7c0,7.2-0.2,14.4-0.3,21.6l-0.4,21.6l-2.3,0l0.5-21.6
			c0.1-7.2,0.3-14.4,0.3-21.6c0-7.2-0.1-14.4-0.5-21.5c-0.1-1.8-0.2-3.6-0.5-5.3c-0.1-0.9-0.2-1.7-0.5-2.5c-0.2-0.7-0.6-1.4-1.1-1.8
			c-0.9-1-2.5-1.4-4.1-1.4c-1.7-0.1-3.4,0.2-5.4,0.3L323,94.8z"/>
	</g>
	<g class="st2">
		<path class="st4" d="M334.6,178.8c-2.7-0.2-4.3-0.3-5.7,0.7c-1.3,0.8-1.5,7.7-1.5,7.7l-0.6,7.7l12.8,0.6c0,0,0.7-5.9,0.9-7.8
			c0.2-1.9,0.8-6.3-0.7-7.7C338.4,178.8,334.6,178.8,334.6,178.8z"/>
	</g>
	<path class="st5" d="M261.9,168.5c-1.1,0-1.5,0-2.4,0c-0.9,0-1.8,0.1-2.6,0.2c-1.7,0.2-3.1,0.7-4,1.5c-0.2,0.2-0.5,0.4-0.7,0.7
		c-0.2,0.3-0.4,0.5-0.5,0.9c-0.1,0.2-0.1,0.3-0.2,0.5c0,0.1-0.1,0.2-0.1,0.2l-0.1,0.3c-0.1,0.4-0.2,0.8-0.3,1.3
		c-0.3,1.8-0.6,3.7-0.8,5.7c-0.4,3.9-0.6,7.8-0.8,11.7c-0.2,3.9-0.4,7.9-0.5,11.8c-0.1,2-0.1,3.9-0.2,5.9l0,1.5c0,0.5,0,1,0,1.5
		l-0.1,3l-0.4,11.8l-0.7,42.6l0-18.9l-0.7-23.6l-0.4-11.8l-0.1-3c0-0.5,0-1,0-1.5l-0.1-1.5c-0.1-2-0.1-3.9-0.2-5.9
		c-0.1-3.9-0.2-7.9-0.2-11.9c0-4,0-7.9,0.1-11.9c0.1-2,0.2-4,0.5-6.1c0.1-0.5,0.2-1.1,0.3-1.6l0.1-0.4c0-0.2,0.1-0.3,0.1-0.5
		c0.1-0.3,0.2-0.6,0.3-0.9c0.2-0.6,0.5-1.2,0.9-1.7c0.4-0.6,0.8-1.1,1.2-1.6c0.5-0.5,1-0.9,1.5-1.3c0.5-0.4,1.1-0.7,1.7-0.9
		c1.1-0.5,2.3-0.9,3.4-1.1c1.1-0.2,2.2-0.4,3.3-0.5c1-0.1,1.7-0.2,2.7-0.2V168.5z"/>
	<path class="st1" d="M319,131.2l-1.7,35l-0.6,11.6L311.8,279c0,4.2-1.9,7.6-4.3,7.6h-43.4V131.2H319z"/>
	<line class="st6" x1="7.5" y1="179.9" x2="224.6" y2="179.9"/>
	<path class="st5" d="M261.9,168.5c1.1,0,1.5,0,2.4,0c0.9,0,1.8,0.1,2.6,0.2c1.7,0.2,3.1,0.7,4,1.5c0.2,0.2,0.5,0.4,0.7,0.7
		c0.2,0.3,0.4,0.5,0.5,0.9c0.1,0.2,0.1,0.3,0.2,0.5c0,0.1,0.1,0.2,0.1,0.2l0.1,0.3c0.1,0.4,0.2,0.8,0.3,1.3c0.3,1.8,0.6,3.7,0.8,5.7
		c0.4,3.9,0.6,7.8,0.8,11.7c0.2,3.9,0.4,7.9,0.5,11.8c0.1,2,0.1,3.9,0.2,5.9l0,1.5c0,0.5,0,1,0,1.5l0.1,3l0.4,11.8l0.7,23.6l0,18.9
		l0.7-42.6l0.4-11.8l0.1-3c0-0.5,0-1,0-1.5l0.1-1.5c0.1-2,0.1-3.9,0.2-5.9c0.1-3.9,0.2-7.9,0.2-11.9c0-4,0-7.9-0.1-11.9
		c-0.1-2-0.2-4-0.5-6.1c-0.1-0.5-0.2-1.1-0.3-1.6l-0.1-0.4c0-0.2-0.1-0.3-0.1-0.5c-0.1-0.3-0.2-0.6-0.3-0.9
		c-0.2-0.6-0.5-1.2-0.9-1.7c-0.4-0.6-0.8-1.1-1.2-1.6c-0.5-0.5-1-0.9-1.5-1.3c-0.5-0.4-1.1-0.7-1.7-0.9c-1.1-0.5-2.3-0.9-3.4-1.1
		c-1.1-0.2-2.2-0.4-3.3-0.5c-1-0.1-1.7-0.2-2.7-0.2V168.5z"/>
	<path class="st5" d="M305.3,168.5c-1.1,0-1.5,0-2.4,0c-0.9,0-1.8,0.1-2.6,0.2c-1.7,0.2-3.1,0.7-4,1.5c-0.2,0.2-0.5,0.4-0.7,0.7
		c-0.2,0.3-0.4,0.5-0.5,0.9c-0.1,0.2-0.1,0.3-0.2,0.5c0,0.1-0.1,0.2-0.1,0.2l-0.1,0.3c-0.1,0.4-0.2,0.8-0.3,1.3
		c-0.3,1.8-0.6,3.7-0.8,5.7c-0.4,3.9-0.6,7.8-0.8,11.7c-0.2,3.9-0.4,7.9-0.5,11.8c-0.1,2-0.1,3.9-0.2,5.9l0,1.5c0,0.5,0,1,0,1.5
		l-0.1,3l-0.4,11.8l-0.7,23.6l0,18.9l-0.7-42.6l-0.4-11.8l-0.1-3c0-0.5,0-1,0-1.5l-0.1-1.5c-0.1-2-0.1-3.9-0.2-5.9
		c-0.1-3.9-0.2-7.9-0.2-11.9c0-4,0-7.9,0.1-11.9c0.1-2,0.2-4,0.5-6.1c0.1-0.5,0.2-1.1,0.3-1.6l0.1-0.4c0-0.2,0.1-0.3,0.1-0.5
		c0.1-0.3,0.2-0.6,0.3-0.9c0.2-0.6,0.5-1.2,0.9-1.7c0.4-0.6,0.8-1.1,1.2-1.6c0.5-0.5,1-0.9,1.5-1.3c0.5-0.4,1.1-0.7,1.7-0.9
		c1.1-0.5,2.3-0.9,3.4-1.1c1.1-0.2,2.2-0.4,3.3-0.5c1-0.1,1.7-0.2,2.7-0.2V168.5z"/>
	<path class="st5" d="M317.3,166.1l-0.6,11.6c-0.1-1.2-0.3-2.5-0.5-3.6c-0.1-0.4-0.2-0.9-0.3-1.3l-0.1-0.3c0-0.1-0.1-0.2-0.1-0.2
		c-0.1-0.2-0.1-0.3-0.2-0.5c-0.1-0.3-0.3-0.6-0.5-0.9c-0.2-0.3-0.4-0.5-0.7-0.7c-1-0.8-2.4-1.3-4-1.5c-0.8-0.1-1.7-0.1-2.6-0.2
		c-0.9,0-1.3,0-2.4-0.1v-5.8c1,0,1.7,0.1,2.7,0.2c1.1,0.1,2.1,0.2,3.3,0.5c1.1,0.2,2.3,0.6,3.4,1.1c0.6,0.3,1.1,0.6,1.7,0.9
		C316.7,165.6,317,165.9,317.3,166.1z"/>
	
		<ellipse transform="matrix(0.7658 -0.6431 0.6431 0.7658 -37.3457 169.9756)" class="st5" cx="214.7" cy="136.3" rx="18.3" ry="11.1"/>
	
		<ellipse transform="matrix(3.566995e-02 -0.9994 0.9994 3.566995e-02 99.5102 360.9079)" class="st5" cx="236.8" cy="128.9" rx="11.1" ry="18.3"/>
	
		<ellipse transform="matrix(3.566995e-02 -0.9994 0.9994 3.566995e-02 92.2343 349.3044)" class="st5" cx="227.1" cy="126.9" rx="11.1" ry="18.3"/>
	
		<ellipse transform="matrix(3.566995e-02 -0.9994 0.9994 3.566995e-02 113.2116 389.8367)" class="st5" cx="258.6" cy="136.3" rx="11.1" ry="18.3"/>
	
		<ellipse transform="matrix(3.566995e-02 -0.9994 0.9994 3.566995e-02 140.9922 412.5316)" class="st5" cx="284.3" cy="133.2" rx="11.1" ry="18.3"/>
	
		<ellipse transform="matrix(3.566995e-02 -0.9994 0.9994 3.566995e-02 162.2274 438.6016)" class="st5" cx="308.4" cy="135.2" rx="11.1" ry="18.3"/>
	
		<ellipse transform="matrix(3.566995e-02 -0.9994 0.9994 3.566995e-02 112.0756 355.6446)" class="st5" cx="240.3" cy="119.7" rx="11.1" ry="18.3"/>
	
		<ellipse transform="matrix(3.566995e-02 -0.9994 0.9994 3.566995e-02 128.9692 372.9638)" class="st5" cx="257.7" cy="119.7" rx="11.1" ry="8.5"/>
	<ellipse transform="matrix(0.79 -0.6132 0.6132 0.79 -17.3949 191.07)" class="st5" cx="270.2" cy="120.9" rx="11.1" ry="8.5"/>
	<ellipse transform="matrix(0.79 -0.6132 0.6132 0.79 -11.3259 200.8935)" class="st5" cx="287.6" cy="117" rx="17.9" ry="15.5"/>
	<ellipse transform="matrix(0.79 -0.6132 0.6132 0.79 -17.9659 209.9539)" class="st5" cx="297.5" cy="131.2" rx="17.9" ry="15.5"/>
	
		<ellipse transform="matrix(0.9808 -0.1949 0.1949 0.9808 -20.1516 46.1415)" class="st5" cx="224.4" cy="125.5" rx="15.6" ry="11.1"/>
	
		<ellipse transform="matrix(0.7658 -0.6431 0.6431 0.7658 -49.5933 171.5988)" class="st5" cx="210.8" cy="153.9" rx="12.2" ry="11.1"/>
	
		<ellipse transform="matrix(0.7658 -0.6431 0.6431 0.7658 -55.6289 171.2601)" class="st5" cx="207.3" cy="162" rx="10.6" ry="11.1"/>
	
		<ellipse transform="matrix(0.7658 -0.6431 0.6431 0.7658 -72.6546 178.7835)" class="st5" cx="209.1" cy="189.1" rx="7.1" ry="11.2"/>
	
		<ellipse transform="matrix(8.721282e-02 -0.9962 0.9962 8.721282e-02 9.3513 384.4508)" class="st5" cx="214.5" cy="187.1" rx="34.7" ry="8.1"/>
	
		<ellipse transform="matrix(0.5646 -0.8254 0.8254 0.5646 -20.3053 252.73)" class="st5" cx="229.4" cy="145.6" rx="18.8" ry="10.6"/>
	
		<ellipse transform="matrix(8.721282e-02 -0.9962 0.9962 8.721282e-02 15.4462 367.1866)" class="st5" cx="208.1" cy="175.2" rx="16.7" ry="10.6"/>
	
		<ellipse transform="matrix(0.9364 -0.3509 0.3509 0.9364 -58.0195 86.1552)" class="st5" cx="208.7" cy="203.2" rx="8.3" ry="16.7"/>
	
		<ellipse transform="matrix(0.1456 -0.9893 0.9893 0.1456 -30.6645 399.7278)" class="st5" cx="216.1" cy="217.6" rx="16.7" ry="7.4"/>
	<ellipse transform="matrix(0.9777 -0.21 0.21 0.9777 -43.0909 49.615)" class="st5" cx="212" cy="227.7" rx="4" ry="16.7"/>
	<polygon class="st7" points="242.1,85.3 214.3,68.4 300.6,80.3 359.4,113.2 328.8,107.2 	"/>
	<path class="st8" d="M235.9,110.3l88.3,22.3l7.5-29.8c0,0-32-12.6-43.1-15.4c-11.1-2.8-45.2-6.8-45.2-6.8L235.9,110.3z"/>
	<g class="st2">
		<circle class="st4" cx="335.1" cy="175.1" r="4.3"/>
	</g>
	<line class="st6" x1="310.9" y1="272.8" x2="486" y2="272.8"/>
	<text transform="matrix(0.8371 0 0 1 13.4985 173.6963)" class="st9 st10 st11">Facul</text>
	<text transform="matrix(0.8371 0 0 1 328.1611 266.4111)" class="st9 st10 st11">Beer</text>
</g>
<g id="Camada_2" class="st0">
	<path class="st12" d="M24,120c0,0,22.9,272.4,97.3,289.6C196,427,487-44.9,487-44.9"/>
</g>
<g id="Camada_3">
	<g>
		<path d="M1,0.4h498v288.1c-4.8-0.2-26-1.1-62.7-1.1c-84.8,0-229,4.3-435.3,24.7V0.4z"/>
		<path d="M498,1.4v286.1c-6.4-0.3-27.2-1-61.7-1c-84.6,0-228.6,4.3-434.3,24.6V1.4H498 M500-0.6H0v313.9
			c212.6-21.1,359.1-24.8,436.3-24.8c42.3,0,63.7,1.1,63.7,1.1V-0.6L500-0.6z"/>
	</g>
</g>
</svg>
